<?xml version="1.0" encoding="UTF-8" standalone="no"?>
<svg
   xmlns:dc="http://purl.org/dc/elements/1.1/"
   xmlns:cc="http://creativecommons.org/ns#"
   xmlns:rdf="http://www.w3.org/1999/02/22-rdf-syntax-ns#"
   xmlns:svg="http://www.w3.org/2000/svg"
   xmlns="http://www.w3.org/2000/svg"
   xmlns:sodipodi="http://sodipodi.sourceforge.net/DTD/sodipodi-0.dtd"
   xmlns:inkscape="http://www.inkscape.org/namespaces/inkscape"
   version="1.1"
   x="0px"
   y="0px"
   viewBox="0 0 100 100"
   enable-background="new 0 0 60 60"
   xml:space="preserve"
   id="svg3876"
   sodipodi:docname="noun_Network_244889.svg"
   width="100"
   height="100"
   inkscape:version="0.92.2 5c3e80d, 2017-08-06"><metadata
     id="metadata3882"><rdf:RDF><cc:Work
         rdf:about=""><dc:format>image/svg+xml</dc:format><dc:type
           rdf:resource="http://purl.org/dc/dcmitype/StillImage" /><dc:title></dc:title></cc:Work></rdf:RDF></metadata><defs
     id="defs3880" /><sodipodi:namedview
     pagecolor="#ffffff"
     bordercolor="#666666"
     borderopacity="1"
     objecttolerance="10"
     gridtolerance="10"
     guidetolerance="10"
     inkscape:pageopacity="0"
     inkscape:pageshadow="2"
     inkscape:window-width="671"
     inkscape:window-height="642"
     id="namedview3878"
     showgrid="false"
     inkscape:zoom="3.1466667"
     inkscape:cx="30"
     inkscape:cy="50.211864"
     inkscape:window-x="0"
     inkscape:window-y="0"
     inkscape:window-maximized="0"
     inkscape:current-layer="svg3876" /><rect
     x="-410"
     y="14"
     display="none"
     width="802"
     height="805"
     id="rect3852"
     style="display:none;fill:#000000" /><path
     d="m 43.31806,45.899608 c 0.632876,1.631178 1.678842,3.126644 2.92738,4.186513 -0.01721,0.566013 -0.04236,1.218748 -0.08871,1.410069 -0.124462,0.507094 -0.544169,0.879141 -1.125407,0.995653 -2.487811,0.502461 -6.041449,3.033965 -8.089688,5.763405 -0.677892,0.904297 -0.827506,2.18329 -0.364103,3.110757 0.399851,0.798377 1.170423,1.237948 2.170049,1.237948 h 21.358894 c 1.000949,0 1.771522,-0.439571 2.170049,-1.23861 0.463402,-0.927467 0.312465,-2.20712 -0.365427,-3.109433 -2.046917,-2.730102 -5.599228,-5.261606 -8.089688,-5.764067 -0.579916,-0.116515 -0.999625,-0.488559 -1.124083,-0.997639 -0.04501,-0.184038 -0.07017,-0.803674 -0.08871,-1.408082 1.237947,-1.050601 2.277293,-2.531504 2.912817,-4.148779 0.590508,-0.249576 1.064502,-0.979104 1.245891,-1.976744 0.164178,-0.999626 -0.05561,-1.858244 -0.536222,-2.288547 0.0027,-2.107158 -0.0331,-4.08324 -0.831477,-5.578707 -0.967848,-1.81323 -2.854558,-2.659932 -6.005697,-2.665229 -3.084938,0.0053 -4.971649,0.851999 -5.939498,2.665229 -0.793081,1.484875 -0.834126,3.443744 -0.831478,5.578707 -0.480614,0.430965 -0.700399,1.291569 -0.534899,2.299802 0.172122,0.946665 0.614339,1.654347 1.230004,1.927754 z m 0.107239,-3.170336 c 0.321734,-0.05959 0.55476,-0.393892 0.55476,-0.720922 -0.0053,-2.147542 -0.0092,-4.001813 0.669948,-5.276833 0.444866,-0.833462 1.421985,-1.941658 4.807471,-1.947616 3.324583,0.006 4.301703,1.114154 4.74657,1.947616 0.679215,1.27502 0.675242,3.129291 0.669946,5.329793 -0.0013,0.327029 0.137698,0.564028 0.45943,0.624269 0.06091,0.06554 0.198602,0.436923 0.09798,1.04398 -0.111215,0.61103 -0.361454,0.917538 -0.33365,0.947328 -0.325705,-0.04171 -0.61434,0.149613 -0.720261,0.448838 -0.566675,1.612642 -1.640445,3.149815 -2.873095,4.112369 -0.169473,0.132406 -0.264803,0.42302 -0.258183,0.638835 0.02912,0.985061 0.05164,1.607344 0.13505,1.940994 0.247591,1.016838 1.08039,1.784101 2.174021,2.003224 2.167402,0.437584 5.429757,2.79167 7.271451,5.248367 0.364102,0.484586 0.467376,1.227354 0.236998,1.690095 -0.164178,0.329016 -0.477968,0.48856 -0.957258,0.48856 H 38.747581 c -0.479291,0 -0.793081,-0.159544 -0.957258,-0.487898 -0.2317,-0.463403 -0.127104,-1.206171 0.236998,-1.691419 1.841695,-2.456035 5.10405,-4.810121 7.270127,-5.247705 1.094954,-0.219123 1.927755,-0.986386 2.175345,-2.001238 0.08341,-0.335636 0.10593,-0.957919 0.137696,-2.027717 0.0066,-0.215814 -0.09004,-0.421698 -0.26083,-0.554098 -1.233975,-0.963877 -2.307745,-2.50105 -2.873096,-4.112369 -0.09532,-0.272745 -0.264803,-0.440893 -0.530928,-0.440893 -0.02648,0 -0.05429,0.0013 -0.08341,0.0046 -0.07812,-0.04236 -0.328354,-0.348877 -0.438246,-0.948652 -0.101951,-0.618312 0.03576,-0.989697 0.0013,-1.011542 z"
     id="path3854"
     inkscape:connector-curvature="0"
     style="stroke-width:1.35578394" /><path
     d="m 59.628512,41.025936 c 0.173445,0 0.346889,-0.06621 0.479291,-0.198601 l 8.46314,-8.46372 c 1.213702,0.995322 2.703211,1.564315 4.293674,1.564315 1.820512,0 3.532454,-0.709006 4.819389,-1.996603 1.288259,-1.287597 1.996603,-2.998878 1.996603,-4.819389 0,-1.821173 -0.708344,-3.532453 -1.996603,-4.82005 -1.286935,-1.287598 -2.998877,-1.996603 -4.819389,-1.996603 -1.82051,0 -3.532452,0.709005 -4.819387,1.996603 -1.288259,1.287597 -1.996603,2.998877 -1.996603,4.82005 0,1.590217 0.568329,3.079062 1.563735,4.293013 l -8.463141,8.463802 c -0.264802,0.264801 -0.264802,0.69378 0,0.958582 0.132406,0.132405 0.305845,0.198601 0.479291,0.198601 z M 69.003811,23.25047 c 1.031401,-1.031403 2.401751,-1.599402 3.860806,-1.599402 1.459057,0 2.829406,0.567999 3.860808,1.599402 1.031401,1.031401 1.599401,2.402411 1.599401,3.861468 0,1.458395 -0.568,2.829404 -1.599401,3.860807 -1.031404,1.031401 -2.401751,1.599402 -3.860808,1.599402 -1.459055,0 -2.829405,-0.568001 -3.860806,-1.599402 -1.031402,-1.031403 -1.599401,-2.402412 -1.599401,-3.860807 0,-1.459057 0.567999,-2.830067 1.599401,-3.861468 z"
     id="path3856"
     inkscape:connector-curvature="0"
     style="stroke-width:1.35578394" /><path
     d="m 68.04523,78.809808 c 1.286935,1.287597 2.998877,1.996603 4.819387,1.996603 1.820512,0 3.532454,-0.709006 4.819389,-1.996603 1.288259,-1.287597 1.996603,-2.998878 1.996603,-4.82005 0,-1.820512 -0.708344,-3.531792 -1.996603,-4.819389 -1.286935,-1.287598 -2.998877,-1.996604 -4.819389,-1.996604 -1.512678,0 -2.934911,0.514047 -4.11609,1.418262 l -4.287387,-4.28871 c -0.264801,-0.264802 -0.693781,-0.264802 -0.958581,0 -0.264801,0.264801 -0.264802,0.693779 0,0.958581 l 4.25594,4.257181 c -1.090403,1.242664 -1.709872,2.802759 -1.709872,4.470679 0,1.821172 0.708344,3.532453 1.996603,4.82005 z m 8.680195,-8.680857 c 1.031401,1.031402 1.599401,2.402412 1.599401,3.860807 0,1.459057 -0.568,2.830066 -1.599401,3.861468 -1.031404,1.031403 -2.401751,1.599402 -3.860808,1.599402 -1.459055,0 -2.829405,-0.567999 -3.860806,-1.599402 -1.031402,-1.031402 -1.599401,-2.402411 -1.599401,-3.861468 0,-1.458395 0.567999,-2.829405 1.599401,-3.860807 1.031401,-1.031401 2.401751,-1.599402 3.860806,-1.599402 1.459057,0 2.829404,0.567999 3.860808,1.599402 z"
     id="path3858"
     inkscape:connector-curvature="0"
     style="stroke-width:1.35578394" /><path
     d="m 48.743845,24.15005 v 5.936934 c 0,0.374693 0.303198,0.677891 0.677891,0.677891 0.374694,0 0.677892,-0.303198 0.677892,-0.677891 v -5.936107 c 3.438863,-0.344159 6.142071,-3.2204 6.142071,-6.747888 0,-3.758196 -3.057133,-6.815992 -6.815991,-6.815992 -3.758859,0 -6.815992,3.057796 -6.815992,6.815992 0,3.524758 2.699072,6.399343 6.134129,6.747061 z m 0.681863,-12.207269 c 3.010794,0 5.460208,2.449414 5.460208,5.460208 0,3.010794 -2.449414,5.460208 -5.460208,5.460208 -3.010794,0 -5.460207,-2.449415 -5.460207,-5.460208 0,-3.010794 2.449413,-5.460208 5.460207,-5.460208 z"
     id="path3860"
     inkscape:connector-curvature="0"
     style="stroke-width:1.35578394" /><path
     d="m 82.573567,43.734855 c -3.52666,0 -6.401578,2.701721 -6.747474,6.138101 H 59.854917 c -0.374694,0 -0.677892,0.303198 -0.677892,0.677892 0,0.374693 0.303198,0.677891 0.677892,0.677891 h 15.971176 c 0.345897,3.43638 3.220814,6.138101 6.747474,6.138101 3.758858,0 6.815992,-3.057796 6.815992,-6.815992 0,-3.758196 -3.057134,-6.815993 -6.815992,-6.815993 z m 0,12.276201 c -2.940374,0 -5.328552,-2.340929 -5.439439,-5.254656 0.02128,-0.06579 0.04146,-0.132569 0.04146,-0.205552 0,-0.07298 -0.02018,-0.139765 -0.04146,-0.205552 0.11089,-2.913727 2.499065,-5.254656 5.439439,-5.254656 3.010793,0 5.460208,2.449415 5.460208,5.460208 0,3.010793 -2.449415,5.460208 -5.460208,5.460208 z"
     id="path3862"
     inkscape:connector-curvature="0"
     style="stroke-width:1.35578394" /><path
     d="m 35.285306,64.303317 c -0.264803,-0.264802 -0.693781,-0.264802 -0.958583,0 l -4.287385,4.28871 c -1.18118,-0.904215 -2.603414,-1.418262 -4.116092,-1.418262 -1.82051,0 -3.532452,0.709006 -4.819388,1.996604 -1.288259,1.287597 -1.996604,2.998878 -1.996604,4.819389 0,1.821172 0.708345,3.532453 1.996604,4.82005 1.286936,1.287597 2.998878,1.996603 4.819388,1.996603 1.820511,0 3.532453,-0.709006 4.819388,-1.996603 1.28826,-1.287597 1.996604,-2.998878 1.996604,-4.82005 0,-1.66792 -0.61947,-3.228014 -1.709873,-4.470678 l 4.255941,-4.257182 c 0.2648,-0.264802 0.2648,-0.69378 0,-0.958581 z m -5.501253,13.54791 c -1.031402,1.031402 -2.401751,1.599401 -3.860807,1.599401 -1.459056,0 -2.829403,-0.567999 -3.860807,-1.599401 -1.031401,-1.031403 -1.599401,-2.402412 -1.599401,-3.861469 0,-1.458395 0.568,-2.829405 1.599401,-3.860807 1.031404,-1.031401 2.401751,-1.599402 3.860807,-1.599402 1.459056,0 2.829405,0.568001 3.860807,1.599402 1.031402,1.031402 1.5994,2.402413 1.5994,3.860807 0,1.459057 -0.567998,2.830066 -1.5994,3.861469 z"
     id="path3864"
     inkscape:connector-curvature="0"
     style="stroke-width:1.35578394" /><path
     d="m 25.923246,33.92793 c 1.590464,0 3.079973,-0.568993 4.293675,-1.564315 l 8.46314,8.46372 c 0.132405,0.132405 0.305846,0.198601 0.479291,0.198601 0.173445,0 0.34689,-0.06621 0.479291,-0.198601 0.264801,-0.264802 0.264801,-0.693781 -1e-6,-0.958582 l -8.46314,-8.463802 c 0.995405,-1.213951 1.563736,-2.702796 1.563736,-4.293013 0,-1.821173 -0.708344,-3.532453 -1.996604,-4.82005 -1.286935,-1.287598 -2.998877,-1.996603 -4.819388,-1.996603 -1.82051,0 -3.532452,0.709005 -4.819388,1.996603 -1.288259,1.287597 -1.996604,2.998877 -1.996604,4.82005 0,1.82051 0.708345,3.531792 1.996604,4.819388 1.286936,1.287598 2.998878,1.996604 4.819388,1.996604 z M 22.062439,23.25047 c 1.031404,-1.031403 2.401751,-1.599402 3.860807,-1.599402 1.459056,0 2.829405,0.567999 3.860807,1.599402 1.031402,1.031401 1.5994,2.402411 1.5994,3.861468 0,1.458395 -0.567998,2.829404 -1.5994,3.860807 -1.031402,1.031401 -2.401751,1.599402 -3.860807,1.599402 -1.459056,0 -2.829406,-0.568001 -3.860807,-1.599402 -1.031401,-1.031403 -1.599401,-2.402412 -1.599401,-3.860807 0,-1.459057 0.568,-2.830067 1.599401,-3.861468 z"
     id="path3866"
     inkscape:connector-curvature="0"
     style="stroke-width:1.35578394" /><path
     d="m 49.362155,65.00173 c -0.374693,0 -0.677891,0.303198 -0.677891,0.677892 v 11.278065 c -3.406507,0.37519 -6.074548,3.236702 -6.074548,6.74102 0,3.758195 3.057133,6.815995 6.815992,6.815995 3.758858,0 6.815991,-3.0578 6.815991,-6.815995 0,-3.547845 -2.73424,-6.437822 -6.201652,-6.75393 V 65.679622 c 0,-0.374694 -0.303197,-0.677892 -0.677892,-0.677892 z m 5.523761,18.696977 c 0,3.010794 -2.449414,5.460209 -5.460208,5.460209 -3.010794,0 -5.460207,-2.449415 -5.460207,-5.460209 0,-2.959572 2.370552,-5.363804 5.310759,-5.445066 0.02938,0.004 0.05535,0.0173 0.08589,0.0173 0.04559,0 0.0854,-0.01739 0.128433,-0.0259 2.980258,0.03576 5.395332,2.465053 5.395332,5.45367 z"
     id="path3868"
     inkscape:connector-curvature="0"
     style="stroke-width:1.35578394" /><path
     d="m 16.214297,57.36684 c 3.526661,0 6.401578,-2.701721 6.747475,-6.138101 h 15.971175 c 0.374694,0 0.677892,-0.303198 0.677892,-0.677891 0,-0.374694 -0.303198,-0.677892 -0.677892,-0.677892 H 22.961772 c -0.345898,-3.43638 -3.220814,-6.138101 -6.747475,-6.138101 -3.758858,0 -6.8159919,3.057797 -6.8159919,6.815993 0,3.758196 3.0571339,6.815992 6.8159919,6.815992 z m 0,-12.2762 c 2.940373,0 5.328553,2.340929 5.439438,5.254656 -0.02127,0.06579 -0.04146,0.132569 -0.04146,0.205552 0,0.07298 0.02019,0.139765 0.04146,0.205552 -0.110885,2.913727 -2.499065,5.254656 -5.439438,5.254656 -3.010794,0 -5.460208,-2.449415 -5.460208,-5.460208 0,-3.010793 2.449414,-5.460208 5.460208,-5.460208 z"
     id="path3870"
     inkscape:connector-curvature="0"
     style="stroke-width:1.35578394" /></svg>