<?xml version="1.0" encoding="UTF-8" standalone="no"?>
<!-- Created with Inkscape (http://www.inkscape.org/) -->

<svg
   width="22.267361mm"
   height="7.2204971mm"
   viewBox="0 0 22.267361 7.2204971"
   version="1.1"
   id="svg5"
   xml:space="preserve"
   inkscape:version="1.2.2 (732a01da63, 2022-12-09)"
   sodipodi:docname="bonsai.svg"
   inkscape:export-filename="bonsai.svg"
   inkscape:export-xdpi="228.13658"
   inkscape:export-ydpi="228.13658"
   xmlns:inkscape="http://www.inkscape.org/namespaces/inkscape"
   xmlns:sodipodi="http://sodipodi.sourceforge.net/DTD/sodipodi-0.dtd"
   xmlns:xlink="http://www.w3.org/1999/xlink"
   xmlns="http://www.w3.org/2000/svg"
   xmlns:svg="http://www.w3.org/2000/svg"><sodipodi:namedview
     id="namedview7"
     pagecolor="#ffffff"
     bordercolor="#000000"
     borderopacity="0.25"
     inkscape:showpageshadow="2"
     inkscape:pageopacity="0.0"
     inkscape:pagecheckerboard="0"
     inkscape:deskcolor="#d1d1d1"
     inkscape:document-units="mm"
     showgrid="false"
     showguides="false"
     inkscape:zoom="2.8114637"
     inkscape:cx="300.73304"
     inkscape:cy="289.70675"
     inkscape:window-width="1920"
     inkscape:window-height="1111"
     inkscape:window-x="-9"
     inkscape:window-y="-9"
     inkscape:window-maximized="1"
     inkscape:current-layer="layer1" /><defs
     id="defs2"><linearGradient
       inkscape:collect="always"
       id="linearGradient22877"><stop
         style="stop-color:#fa8dc4;stop-opacity:1;"
         offset="0"
         id="stop22873" /><stop
         style="stop-color:#f84da0;stop-opacity:1;"
         offset="1"
         id="stop22875" /></linearGradient><linearGradient
       inkscape:collect="always"
       xlink:href="#linearGradient22877"
       id="linearGradient34237"
       gradientUnits="userSpaceOnUse"
       x1="27.576149"
       y1="80.390198"
       x2="27.576149"
       y2="87.9189"
       gradientTransform="translate(44.482642,-12.485457)" /></defs><g
     inkscape:label="Layer 1"
     inkscape:groupmode="layer"
     id="layer1"
     transform="translate(-61.001028,-68.058645)"><path
       id="path21944-2"
       style="font-size:4.17597px;font-family:'MS Mincho';-inkscape-font-specification:'Comfortaa Bold';fill:url(#linearGradient34237);fill-opacity:1;stroke-width:0.2"
       d="m 65.479293,68.058981 c -0.07337,4.82e-4 -0.143981,0.02969 -0.206706,0.08682 -0.01692,0.0154 -0.01869,0.01597 -0.02739,0.0072 -0.01131,-0.0113 -0.05845,-0.03137 -0.08578,-0.03617 -0.08754,-0.01544 -0.178463,0.03944 -0.208773,0.126091 l -0.0098,0.0279 -0.01602,-0.01602 c -0.0086,-0.0089 -0.02688,-0.02247 -0.04082,-0.02997 -0.02405,-0.01296 -0.02739,-0.01389 -0.06873,-0.01395 -0.03849,-5e-5 -0.04654,0.0017 -0.06718,0.01137 -0.02651,0.01244 -0.05476,0.03594 -0.06821,0.05736 -0.005,0.008 -0.0136,0.02766 -0.0186,0.04341 -0.0184,0.0555 -0.0016,0.114907 0.04548,0.160197 0.02134,0.02019 0.02532,0.02641 0.02532,0.03824 0,0.01958 0.01129,0.06069 0.02119,0.07751 0.0046,0.0077 0.0073,0.0141 0.0067,0.01447 -6.8e-4,3.7e-4 -0.01119,0.0063 -0.02377,0.01292 -0.01256,0.0066 -0.05467,0.03003 -0.09353,0.05219 -0.153505,0.08762 -0.192312,0.109477 -0.223242,0.126607 l -0.03204,0.01809 -0.01085,-0.0186 c -0.01468,-0.02505 -0.04988,-0.05645 -0.07906,-0.07028 -0.03856,-0.01827 -0.07518,-0.024 -0.114721,-0.0186 -0.01829,0.0025 -0.034,0.004 -0.03462,0.0031 -9.3e-4,-9.3e-4 0.0068,-0.01459 0.01705,-0.02997 0.01029,-0.01539 0.01999,-0.03211 0.02119,-0.03721 0.0023,-0.0091 0.0027,-0.0089 0.03359,-0.0036 0.07044,0.01206 0.138951,-0.01277 0.183451,-0.06615 0.08586,-0.102978 0.05396,-0.249735 -0.06666,-0.309025 -0.01723,-0.0085 -0.02842,-0.01759 -0.03152,-0.02429 -0.0026,-0.0058 -0.01304,-0.01893 -0.02274,-0.02945 -0.03929,-0.04263 -0.08652,-0.06408 -0.14211,-0.06408 h -0.03514 l -0.02739,-0.02067 c -0.0625,-0.04731 -0.125302,-0.06968 -0.205672,-0.07338 -0.0594,-0.0027 -0.101625,0.0035 -0.152445,0.02325 -0.0642,0.02491 -0.133222,0.08007 -0.168982,0.134359 -0.0087,0.01313 -0.01904,0.0238 -0.02274,0.02377 -0.0037,-10e-5 -0.01688,-0.0029 -0.02946,-0.0062 -0.02837,-0.0076 -0.101063,-0.0079 -0.135393,-5.17e-4 l -0.02532,0.0052 -0.0067,-0.01912 c -0.01353,-0.03808 -0.05156,-0.08583 -0.08682,-0.109037 -0.05215,-0.03431 -0.119615,-0.04824 -0.182935,-0.03721 -0.07674,0.01337 -0.145123,0.06972 -0.175183,0.143661 l -0.0093,0.02274 -0.01137,-0.0057 c -0.01984,-0.01025 -0.07306,-0.01975 -0.09767,-0.01705 -0.04383,0.0048 -0.07639,0.01795 -0.108004,0.04341 -0.02814,0.02266 -0.03608,0.03259 -0.05529,0.0708 l -0.01757,0.03514 v 0.05013 c 0,0.04994 -3e-5,0.05004 0.01602,0.08217 0.03724,0.07459 0.101662,0.115202 0.185002,0.115755 h 0.03152 l 0.01189,0.02532 c 0.02061,0.04344 0.06849,0.0833 0.120923,0.100769 0.0065,0.0021 0.0027,0.0049 -0.01654,0.01137 -0.05239,0.01771 -0.08894,0.05083 -0.113171,0.102836 -0.008,0.01713 -0.0149,0.03181 -0.0155,0.03256 -6.2e-4,7e-4 -0.0079,-0.002 -0.0155,-0.0062 -0.01091,-0.0059 -0.02327,-0.0077 -0.05736,-0.0078 -0.04038,-6e-5 -0.04515,0.0011 -0.06356,0.01189 -0.01097,0.0064 -0.02599,0.01717 -0.03359,0.02377 -0.01996,0.01755 -0.03867,0.05858 -0.04237,0.09198 l -0.0031,0.0279 -0.01085,-0.0057 c -0.02092,-0.01082 -0.0611,-0.01563 -0.08682,-0.01033 -0.0677,0.01379 -0.108438,0.06253 -0.112138,0.134875 -0.0016,0.03012 -3.94e-4,0.03598 0.0098,0.05633 0.02945,0.05865 0.06955,0.08512 0.128675,0.08475 0.02479,-2e-4 0.03836,-0.0026 0.05323,-0.0093 0.02134,-0.0097 0.0211,-0.0099 0.02481,0.0155 0.003,0.02144 0.01776,0.05913 0.03152,0.07958 0.04369,0.06506 0.114803,0.103006 0.191203,0.102836 0.0634,-1.4e-4 0.116568,-0.02181 0.160196,-0.06563 l 0.02222,-0.02222 0.01912,0.01344 c 0.05268,0.03625 0.106468,0.05178 0.166398,0.04858 0.04929,-0.0027 0.08527,-0.01296 0.121956,-0.03514 l 0.02635,-0.01602 0.03566,0.01809 c 0.05173,0.02592 0.07946,0.03194 0.14366,0.03204 0.02967,1e-4 0.06213,-0.0012 0.07183,-0.0031 0.01707,-0.0034 0.01757,-0.0035 0.01757,0.0067 0,0.01766 -0.01648,0.05604 -0.03669,0.08527 -0.03989,0.05776 -0.05004,0.07437 -0.0708,0.112654 -0.05673,0.104175 -0.06941,0.146773 -0.06201,0.207223 0.0076,0.06146 0.04453,0.152135 0.0832,0.203605 0.05375,0.07157 0.179126,0.203679 0.278536,0.294039 0.03136,0.02852 0.05598,0.05381 0.05478,0.05581 -0.0013,0.002 5.34e-4,0.0022 0.0036,0.001 0.008,-0.0031 0.147263,0.117494 0.191203,0.165364 0.05948,0.06487 0.09,0.111804 0.0956,0.144694 0.0033,0.02019 -0.0041,0.06476 -0.01499,0.08837 -0.0064,0.01403 -0.04525,0.05523 -0.155546,0.165881 h -1.71204 -0.02946 c -0.292226,0 -0.543119,0.251094 -0.543119,0.54312 v 0.05943 c -0.386883,0.04923 -0.687296,0.380324 -0.687296,0.780314 v 2.128552 c 0,0.433794 0.353241,0.787549 0.787032,0.787549 h 5.525244 c 0.433787,0 0.787549,-0.353755 0.787549,-0.787549 v -2.128552 c 0,-0.39999 -0.300861,-0.731079 -0.687814,-0.780314 v -0.05943 c 0,-0.292268 -0.250749,-0.54312 -0.543119,-0.54312 h -1.787488 c -0.02799,-0.02878 -0.05464,-0.05893 -0.06821,-0.07803 -0.03086,-0.04337 -0.05211,-0.08646 -0.05581,-0.112138 -0.0068,-0.05099 -0.0294,-0.09399 -0.0832,-0.156063 -0.03825,-0.04413 -0.07715,-0.08003 -0.129708,-0.119889 -0.0419,-0.03179 -0.0653,-0.05962 -0.0739,-0.0894 -0.0076,-0.02632 -0.0048,-0.04693 0.0093,-0.06925 0.01283,-0.02039 0.02089,-0.02425 0.05219,-0.02429 0.06002,-6e-5 0.127066,-0.02601 0.176216,-0.0677 0.03719,-0.03156 0.107352,-0.06034 0.152962,-0.06305 0.01829,-10e-4 0.03963,-0.0036 0.04703,-0.0057 l 0.01292,-0.0041 0.01395,0.02739 c 0.05309,0.10785 0.189677,0.138036 0.284737,0.06253 0.01747,-0.01388 0.05465,-0.06221 0.05478,-0.07131 1.8e-4,-0.0137 0.0066,-0.01587 0.03101,-0.0088 0.03381,0.0098 0.08437,0.0072 0.112138,-0.0062 0.03054,-0.0147 0.06151,-0.04572 0.07545,-0.07597 0.0107,-0.02272 0.01189,-0.03042 0.01189,-0.06511 0,-0.03788 -5.2e-4,-0.04077 -0.01602,-0.06976 -0.01684,-0.03147 -0.04156,-0.05573 -0.06976,-0.06873 -0.02194,-0.01017 -0.05613,-0.01667 -0.07596,-0.01447 -0.0174,0.002 -0.01737,0.0021 -0.02687,-0.0186 -0.01934,-0.04215 -0.06983,-0.07761 -0.118856,-0.08371 -0.03755,-0.0047 -0.08854,0.0095 -0.112655,0.03152 l -0.0088,0.0083 -0.0098,-0.01602 c -0.0053,-0.0087 -0.01455,-0.02196 -0.02015,-0.02946 -0.01111,-0.01423 -0.059,-0.05478 -0.0646,-0.05478 -0.0018,0 -0.0061,-0.0025 -0.0098,-0.0057 -0.0036,-0.0031 -0.02151,-0.01117 -0.03979,-0.01757 -0.02857,-0.01 -0.03977,-0.01137 -0.07906,-0.01137 -0.03934,0 -0.05047,0.0015 -0.07855,0.01137 -0.03242,0.01144 -0.05767,0.02443 -0.06821,0.03462 -0.008,0.0077 -0.01097,0.0062 -0.01757,-0.0062 -0.0093,-0.01748 -0.04384,-0.04221 -0.06925,-0.04961 -0.05678,-0.0165 -0.114809,0.0068 -0.150379,0.05994 l -0.0067,0.0093 -0.0186,-0.01292 c -0.06108,-0.04223 -0.132466,-0.05428 -0.205156,-0.03411 -0.02099,0.0058 -0.02445,0.0058 -0.02636,0.001 -0.0037,-0.01092 -0.04017,-0.04639 -0.05684,-0.05529 -0.01395,-0.0074 -0.02381,-0.0088 -0.05839,-0.0088 -0.03552,0 -0.04387,0.0015 -0.05943,0.0098 -0.01004,0.0053 -0.02291,0.01455 -0.02791,0.02015 l -0.0093,0.0098 -0.01912,-0.01395 c -0.02926,-0.02234 -0.0505,-0.02877 -0.08837,-0.02687 -0.03903,0.002 -0.05822,0.01024 -0.08475,0.03669 -0.02194,0.02185 -0.03721,0.05653 -0.03721,0.08527 0,0.01023 -3.02e-4,0.01809 -0.0016,0.01809 -0.0056,0 -0.03566,-0.01342 -0.03566,-0.01602 0,-0.0086 0.01841,-0.05403 0.03359,-0.0832 0.02251,-0.04325 0.05448,-0.08119 0.10542,-0.124024 0.07623,-0.06411 0.199497,-0.13919 0.264067,-0.16123 0.03642,-0.01247 0.135102,-0.01031 0.204122,0.0041 0.05355,0.01123 0.108506,0.02883 0.157096,0.05116 0.06948,0.03192 0.167868,0.06111 0.252698,0.07441 0.03157,0.0049 0.05974,0.0061 0.103869,0.0047 0.06489,-0.0021 0.08573,-0.0064 0.171049,-0.03514 0.04269,-0.01437 0.05328,-0.01843 0.123507,-0.04858 l 0.03462,-0.01499 0.01344,0.0098 c 0.06918,0.0519 0.188873,0.06852 0.279053,0.03824 0.0171,-0.0057 0.03194,-0.01085 0.03256,-0.01085 8.6e-4,0 0.0074,0.01065 0.01447,0.02325 0.06511,0.11538 0.217576,0.136536 0.312126,0.04341 0.02275,-0.0224 0.04961,-0.06793 0.04961,-0.08371 0,-0.0041 0.0017,-0.0078 0.0036,-0.0078 0.0021,0 0.029,0.01454 0.05943,0.03204 0.06901,0.03965 0.162204,0.08468 0.200504,0.09715 0.01599,0.0052 0.03961,0.0097 0.05219,0.0098 0.02047,2e-4 0.02309,-8.04e-4 0.02429,-0.0093 0.0017,-0.01213 -0.01202,-0.03434 -0.03824,-0.06253 l -0.02119,-0.02274 0.03514,-0.0067 c 0.0194,-0.0039 0.04474,-0.01219 0.05633,-0.01809 0.04627,-0.02346 0.08187,-0.06769 0.09922,-0.123507 l 0.0072,-0.02325 0.02997,-0.0052 c 0.04874,-0.0082 0.09956,-0.03738 0.12609,-0.07235 0.01717,-0.02261 0.03316,-0.0601 0.03876,-0.09043 0.01469,-0.08219 -0.03239,-0.17386 -0.107487,-0.20929 -0.02229,-0.01035 -0.02627,-0.01367 -0.02377,-0.02067 0.0056,-0.01838 0.0071,-0.08286 0.0021,-0.10542 -0.01689,-0.07687 -0.08671,-0.144137 -0.164331,-0.158647 -0.05251,-0.0098 -0.112243,0.002 -0.156063,0.03152 -0.01165,0.0078 -0.02212,0.01447 -0.02274,0.01447 -0.0013,0 -0.0021,-0.0037 -0.0021,-0.0083 0,-0.01413 -0.01644,-0.07073 -0.02946,-0.101286 -0.03589,-0.08433 -0.101025,-0.153007 -0.184485,-0.193787 -0.03505,-0.01712 -0.104194,-0.03721 -0.127124,-0.03721 h -0.01188 v -0.02842 c 0,-0.06032 -0.03135,-0.112953 -0.08372,-0.140043 -0.02729,-0.01412 -0.07086,-0.0209 -0.09819,-0.0155 l -0.02119,0.0041 -0.01137,-0.01499 c -0.01605,-0.02135 -0.05871,-0.06211 -0.06821,-0.06511 -0.0044,-0.0014 -0.0078,-0.0039 -0.0078,-0.0057 0,-0.0018 -0.01286,-0.0088 -0.02842,-0.01602 -0.04473,-0.02062 -0.08982,-0.03078 -0.133842,-0.03049 z m -2.337842,0.640271 c 6.31e-4,-2.26e-4 9.18e-4,-2.48e-4 10e-4,0 6.8e-4,9.6e-4 0.0096,0.01486 0.02015,0.03101 l 0.01912,0.02945 -0.0093,0.02791 c -0.005,0.01536 -0.01017,0.02898 -0.01137,0.02997 -10e-4,10e-4 -0.0082,-0.0052 -0.01602,-0.01344 -0.0208,-0.02173 -0.04828,-0.03941 -0.07648,-0.04961 l -0.02481,-0.0088 0.01447,-0.0031 c 0.01831,-0.0038 0.06123,-0.02542 0.07338,-0.03669 0.0037,-0.0036 0.0079,-0.006 0.0098,-0.0067 z m 1.436605,0.219624 0.0026,0.01137 c 0.0056,0.02381 0.03238,0.0682 0.05426,0.08992 0.02553,0.02533 0.05901,0.04451 0.09198,0.05271 0.01732,0.0043 0.02325,0.0078 0.02635,0.01602 0.0098,0.02594 0.02337,0.04838 0.04289,0.07028 0.01159,0.013 0.02776,0.03672 0.03566,0.05271 0.01384,0.02788 0.0471,0.06699 0.07028,0.08217 h 5.17e-4 l 0.01034,0.0067 -0.01654,-5.16e-4 c -0.02625,-2.7e-4 -0.06462,-0.0091 -0.147278,-0.03411 -0.07638,-0.02309 -0.212539,-0.06774 -0.258899,-0.08527 l -0.02429,-0.0093 0.0026,-0.03204 c 0.0033,-0.03759 -0.0047,-0.08051 -0.02015,-0.111104 -0.0087,-0.01664 -0.0089,-0.02112 -0.0047,-0.02532 0.0097,-0.009 0.07763,-0.05279 0.106453,-0.06873 z m 4.683952,2.662887 c -0.06125,0 -0.112753,0.01942 -0.154512,0.05839 -0.03897,0.03897 -0.0584,0.09048 -0.0584,0.154513 v 1.904276 c 0.0028,0.219935 0.05429,0.417339 0.154513,0.592729 0.100223,0.175391 0.23667,0.314539 0.409277,0.417546 0.172607,0.100223 0.367311,0.150378 0.58446,0.150378 0.219935,0 0.416505,-0.05016 0.589112,-0.150378 0.172606,-0.103007 0.309054,-0.242155 0.409277,-0.417546 0.103007,-0.17539 0.154513,-0.372794 0.154513,-0.592729 0,-0.219933 -0.04745,-0.416504 -0.142111,-0.589111 -0.09187,-0.175391 -0.218351,-0.313189 -0.379821,-0.413411 -0.161471,-0.103008 -0.344023,-0.154513 -0.547254,-0.154513 -0.164255,0 -0.316071,0.03479 -0.455269,0.104387 -0.136415,0.06682 -0.253444,0.159024 -0.350883,0.275952 v -1.12758 c 0,-0.06403 -0.01942,-0.115539 -0.05839,-0.154513 -0.03897,-0.03897 -0.09048,-0.05839 -0.154512,-0.05839 z M 82.979,71.636023 c -0.06933,0.0033 -0.130218,0.031 -0.182418,0.0832 -0.05289,0.0529 -0.07958,0.117069 -0.07958,0.192237 0,0.07517 0.02669,0.14069 0.07958,0.19637 0.05568,0.05289 0.121204,0.07906 0.196371,0.07906 0.07517,0 0.138826,-0.02617 0.191719,-0.07906 0.05568,-0.05568 0.08372,-0.121203 0.08372,-0.19637 0,-0.07517 -0.02804,-0.139343 -0.08372,-0.192237 -0.0529,-0.05568 -0.116552,-0.0832 -0.191719,-0.0832 -0.0047,0 -0.0093,-2.17e-4 -0.01395,0 z m -21.190954,0.240812 h 5.525244 c 0.272778,0 0.486275,0.21349 0.486275,0.486276 v 2.128552 c 0,0.272786 -0.213497,0.488342 -0.486275,0.488342 h -5.525244 c -0.272778,0 -0.486276,-0.215556 -0.486276,-0.488342 v -2.128552 c 0,-0.272786 0.213498,-0.486276 0.486276,-0.486276 z m 14.151591,0.660942 c -0.183743,0 -0.349577,0.0407 -0.497128,0.12144 -0.08007,0.04381 -0.150871,0.09607 -0.212907,0.157096 v -0.04444 c 0,-0.06403 -0.01942,-0.115539 -0.05839,-0.154512 -0.03897,-0.03897 -0.09048,-0.0584 -0.154512,-0.0584 -0.06125,0 -0.112753,0.01942 -0.154513,0.0584 -0.03897,0.03897 -0.05839,0.09048 -0.05839,0.154512 v 1.862419 c 0,0.06125 0.01942,0.112752 0.05839,0.154512 0.04176,0.03897 0.09327,0.0584 0.154513,0.0584 0.06403,0 0.115539,-0.01942 0.154512,-0.0584 0.03897,-0.04176 0.05839,-0.09327 0.05839,-0.154512 v -1.177706 c 0,-0.103007 0.02804,-0.19335 0.08372,-0.271301 0.05568,-0.08074 0.130654,-0.14491 0.22531,-0.192237 0.09465,-0.04733 0.200366,-0.0708 0.317293,-0.0708 0.128063,0 0.241042,0.02482 0.33848,0.07493 0.100221,0.04733 0.179245,0.120951 0.237712,0.221175 0.05846,0.100223 0.08785,0.22992 0.08785,0.388606 v 1.027328 c 0,0.06125 0.01942,0.112752 0.05839,0.154512 0.04176,0.03897 0.09327,0.0584 0.154513,0.0584 0.06125,0 0.111405,-0.01942 0.150378,-0.0584 0.04176,-0.04176 0.06253,-0.09327 0.06253,-0.154512 v -1.027328 c 0,-0.231069 -0.04424,-0.425773 -0.133325,-0.58446 -0.0863,-0.158687 -0.206033,-0.278416 -0.359152,-0.359151 -0.150335,-0.08352 -0.321569,-0.125574 -0.513663,-0.125574 z m -2.919202,0.0041 c -0.225502,0 -0.424256,0.05016 -0.596863,0.150379 -0.172606,0.09744 -0.309054,0.233886 -0.409277,0.409277 -0.09744,0.172606 -0.146244,0.373228 -0.146244,0.601514 0,0.225502 0.04881,0.426123 0.146244,0.601513 0.100223,0.172607 0.236671,0.308538 0.409277,0.408761 0.172607,0.09744 0.371361,0.146244 0.596863,0.146244 0.225502,0 0.424773,-0.04881 0.59738,-0.146244 0.172606,-0.100223 0.307704,-0.236154 0.405143,-0.408761 0.09744,-0.17539 0.145727,-0.376011 0.145727,-0.601513 0,-0.228286 -0.04964,-0.428908 -0.149861,-0.601514 -0.09744,-0.175391 -0.232537,-0.311838 -0.405144,-0.409277 -0.172606,-0.100224 -0.370527,-0.150379 -0.593245,-0.150379 z m 5.43326,0 c -0.141982,0 -0.27843,0.02399 -0.409277,0.07131 -0.130847,0.04454 -0.238425,0.114117 -0.321944,0.208772 -0.08352,0.09187 -0.125057,0.208901 -0.125057,0.350883 0,0.161471 0.06282,0.297919 0.188102,0.409278 0.128063,0.111358 0.332217,0.194434 0.613399,0.250114 0.21715,0.03898 0.366265,0.08913 0.447001,0.150378 0.08354,0.06125 0.12424,0.134039 0.12144,0.217558 -0.0028,0.08352 -0.04754,0.151745 -0.133842,0.204639 -0.08352,0.05289 -0.205948,0.07906 -0.36742,0.07906 -0.128062,0 -0.245091,-0.02211 -0.350883,-0.06666 -0.103008,-0.04733 -0.177982,-0.09748 -0.225309,-0.150379 -0.03898,-0.04173 -0.08643,-0.06571 -0.14211,-0.07131 -0.05289,-0.0084 -0.107101,0.01023 -0.162781,0.05478 -0.04733,0.03619 -0.07536,0.08313 -0.08372,0.141593 -0.0056,0.05568 0.0125,0.105839 0.05426,0.150379 0.09187,0.09187 0.220218,0.168713 0.384472,0.22996 0.167039,0.05846 0.347724,0.08733 0.542603,0.08733 0.197662,0 0.362146,-0.03022 0.492993,-0.09147 0.133631,-0.06125 0.233425,-0.14349 0.30024,-0.246497 0.0696,-0.103007 0.104903,-0.218685 0.104903,-0.346749 0,-0.111359 -0.02669,-0.208969 -0.07958,-0.292488 -0.0529,-0.0863 -0.140538,-0.161276 -0.263033,-0.225309 -0.119712,-0.06403 -0.284196,-0.116887 -0.492994,-0.158647 -0.150335,-0.03062 -0.264146,-0.06136 -0.342098,-0.09198 -0.07795,-0.03341 -0.130806,-0.06955 -0.158646,-0.108521 -0.02505,-0.04176 -0.03772,-0.08786 -0.03772,-0.137976 0,-0.08073 0.04154,-0.141691 0.125057,-0.183451 0.0863,-0.04176 0.190665,-0.06253 0.313159,-0.06253 0.105791,0 0.199351,0.01215 0.280086,0.03721 0.08074,0.02506 0.15571,0.07116 0.22531,0.137976 0.04176,0.03898 0.09327,0.0638 0.154512,0.07493 0.06124,0.01114 0.1141,0.0017 0.158647,-0.02894 0.04453,-0.03341 0.06851,-0.0736 0.07131,-0.120923 0.0028,-0.05011 -0.01529,-0.09756 -0.05426,-0.14211 -0.08352,-0.103011 -0.196498,-0.183903 -0.338481,-0.242363 -0.141983,-0.05846 -0.304599,-0.08785 -0.488342,-0.08785 z m 2.501139,0 c -0.217149,0 -0.413203,0.05151 -0.588594,0.154513 -0.172607,0.100222 -0.310404,0.23802 -0.413412,0.413411 -0.100223,0.175391 -0.150378,0.373312 -0.150378,0.593246 0,0.219934 0.04559,0.417338 0.137459,0.592728 0.09465,0.172607 0.223002,0.310405 0.384473,0.413412 0.16147,0.100223 0.343506,0.150378 0.546737,0.150378 0.20323,0 0.385782,-0.05016 0.547253,-0.150378 0.09955,-0.06351 0.185802,-0.139996 0.258899,-0.22996 v 0.155029 c 0,0.06125 0.01942,0.112752 0.05839,0.154512 0.04176,0.03897 0.09327,0.0584 0.154513,0.0584 0.06125,0 0.111405,-0.01942 0.150378,-0.0584 0.04176,-0.04176 0.06253,-0.09327 0.06253,-0.154512 v -0.931209 c 0,-0.219934 -0.05151,-0.417855 -0.154513,-0.593246 -0.100223,-0.175391 -0.236671,-0.313189 -0.409277,-0.413411 -0.172607,-0.103008 -0.36731,-0.154513 -0.584461,-0.154513 z m 2.02675,0.01705 c -0.05628,0.0023 -0.103994,0.02186 -0.143144,0.0584 -0.03897,0.03897 -0.05891,0.09048 -0.05891,0.154512 v 1.858285 c 0,0.06125 0.01994,0.112752 0.05891,0.154512 0.04176,0.03897 0.09327,0.0584 0.154513,0.0584 0.06403,0 0.115539,-0.01942 0.154512,-0.0584 0.03897,-0.04176 0.0584,-0.09327 0.0584,-0.154512 v -1.858285 c 0,-0.06403 -0.01942,-0.115539 -0.0584,-0.154512 -0.03897,-0.03897 -0.09048,-0.0584 -0.154512,-0.0584 -0.0038,0 -0.0076,-1.52e-4 -0.01137,0 z M 62.50118,72.904163 a 0.52404338,0.52405179 0 0 0 -0.524515,0.523999 0.52404338,0.52405179 0 0 0 0.524515,0.523999 0.52404338,0.52405179 0 0 0 0.523999,-0.523999 0.52404338,0.52405179 0 0 0 -0.523999,-0.523999 z m 4.099492,0 a 0.52404338,0.52405179 0 0 0 -0.523999,0.523999 0.52404338,0.52405179 0 0 0 0.523999,0.523999 0.52404338,0.52405179 0 0 0 0.523999,-0.523999 0.52404338,0.52405179 0 0 0 -0.523999,-0.523999 z m 3.570841,0.01395 c 0.0086,-2.72e-4 0.01714,0 0.02584,0 0.141984,0 0.26898,0.03479 0.380339,0.104386 0.111357,0.06682 0.199,0.158509 0.263033,0.275435 0.06682,0.116928 0.100252,0.250675 0.100252,0.401009 0,0.147552 -0.03344,0.281298 -0.100252,0.40101 -0.06403,0.11971 -0.151674,0.214104 -0.263033,0.283703 -0.111359,0.06682 -0.238355,0.100252 -0.380339,0.100252 -0.139198,0 -0.265678,-0.03344 -0.379821,-0.100252 -0.111358,-0.0696 -0.199,-0.163993 -0.263033,-0.283703 -0.06403,-0.119712 -0.09612,-0.253458 -0.09612,-0.40101 0,-0.150334 0.03208,-0.284081 0.09612,-0.401009 0.06403,-0.116926 0.151673,-0.208619 0.263033,-0.275435 0.107009,-0.06525 0.224953,-0.100308 0.353983,-0.104386 z m 2.82205,0 c 0.0089,-2.61e-4 0.01782,0 0.02687,0 0.144767,0 0.273113,0.03344 0.384473,0.100252 0.11136,0.06682 0.197652,0.159859 0.258899,0.279569 0.06403,0.116928 0.09612,0.252025 0.09612,0.405144 0,0.153119 -0.03209,0.288216 -0.09612,0.405143 -0.06125,0.116927 -0.147541,0.20862 -0.258899,0.275435 -0.11136,0.06682 -0.239706,0.100252 -0.384473,0.100252 -0.144767,0 -0.272597,-0.03344 -0.383956,-0.100252 -0.111357,-0.06682 -0.199,-0.158508 -0.263033,-0.275435 -0.06403,-0.116927 -0.09612,-0.252024 -0.09612,-0.405143 0,-0.153119 0.03209,-0.288216 0.09612,-0.405144 0.06403,-0.11971 0.151674,-0.212753 0.263033,-0.279569 0.104399,-0.06264 0.223323,-0.09634 0.357084,-0.100252 z m 7.935433,0 c 0.0086,-2.72e-4 0.01714,0 0.02584,0 0.141984,0 0.268464,0.03479 0.379822,0.104386 0.111358,0.06682 0.199517,0.159859 0.26355,0.279569 0.06403,0.116928 0.0956,0.250675 0.0956,0.40101 0,0.147551 -0.03157,0.281298 -0.0956,0.401009 -0.06403,0.116927 -0.152191,0.20997 -0.26355,0.279569 -0.111358,0.06682 -0.237838,0.100252 -0.379822,0.100252 -0.139198,0 -0.265678,-0.03344 -0.379821,-0.100252 -0.11136,-0.0696 -0.200352,-0.162642 -0.267168,-0.279569 -0.06403,-0.119711 -0.09612,-0.253458 -0.09612,-0.401009 0,-0.150335 0.03209,-0.284082 0.09612,-0.40101 0.06682,-0.11971 0.155808,-0.212753 0.267168,-0.279569 0.107009,-0.06525 0.224953,-0.100308 0.353983,-0.104386 z"
       inkscape:export-filename="OneDrive\Documents\bonsai.svg"
       inkscape:export-xdpi="228.13658"
       inkscape:export-ydpi="228.13658" /></g></svg>
