<?xml version="1.0" encoding="UTF-8" standalone="no"?>
<!-- Created with Inkscape (http://www.inkscape.org/) -->

<svg
   width="22.266739mm"
   height="7.2204933mm"
   viewBox="0 0 22.266739 7.2204933"
   version="1.1"
   id="svg5"
   xml:space="preserve"
   inkscape:version="1.2.2 (732a01da63, 2022-12-09)"
   sodipodi:docname="bonsai.svg"
   inkscape:export-filename="bonsai.svg"
   inkscape:export-xdpi="228.13658"
   inkscape:export-ydpi="228.13658"
   xmlns:inkscape="http://www.inkscape.org/namespaces/inkscape"
   xmlns:sodipodi="http://sodipodi.sourceforge.net/DTD/sodipodi-0.dtd"
   xmlns:xlink="http://www.w3.org/1999/xlink"
   xmlns="http://www.w3.org/2000/svg"
   xmlns:svg="http://www.w3.org/2000/svg"><sodipodi:namedview
     id="namedview7"
     pagecolor="#ffffff"
     bordercolor="#000000"
     borderopacity="0.25"
     inkscape:showpageshadow="2"
     inkscape:pageopacity="0.0"
     inkscape:pagecheckerboard="0"
     inkscape:deskcolor="#d1d1d1"
     inkscape:document-units="mm"
     showgrid="false"
     showguides="false"
     inkscape:zoom="2.8114637"
     inkscape:cx="112.57481"
     inkscape:cy="336.3017"
     inkscape:window-width="1920"
     inkscape:window-height="1111"
     inkscape:window-x="-9"
     inkscape:window-y="-9"
     inkscape:window-maximized="1"
     inkscape:current-layer="layer1" /><defs
     id="defs2"><linearGradient
       inkscape:collect="always"
       id="linearGradient45751"><stop
         style="stop-color:#f6ae2e;stop-opacity:1;"
         offset="0"
         id="stop45747" /><stop
         style="stop-color:#fa8dc4;stop-opacity:1;"
         offset="1"
         id="stop45749" /></linearGradient><linearGradient
       inkscape:collect="always"
       xlink:href="#linearGradient45751"
       id="linearGradient46560"
       gradientUnits="userSpaceOnUse"
       x1="27.576149"
       y1="74.5084"
       x2="27.576149"
       y2="87.9189"
       gradientTransform="translate(93.193535,-27.191887)" /></defs><g
     inkscape:label="Layer 1"
     inkscape:groupmode="layer"
     id="layer1"
     transform="translate(-109.71251,-53.352217)"><path
       id="path21944-23"
       style="font-size:4.17597px;font-family:'MS Mincho';-inkscape-font-specification:'Comfortaa Bold';fill:url(#linearGradient46560);fill-opacity:1;stroke-width:0.2"
       d="m 114.19019,53.352551 c -0.0734,4.82e-4 -0.14398,0.02969 -0.20671,0.08682 -0.0169,0.0154 -0.0187,0.01597 -0.0274,0.0072 -0.0113,-0.0113 -0.0585,-0.03137 -0.0858,-0.03617 -0.0875,-0.01544 -0.17846,0.03944 -0.20877,0.126091 l -0.01,0.0279 -0.016,-0.01602 c -0.009,-0.0089 -0.0269,-0.02247 -0.0408,-0.02997 -0.0241,-0.01296 -0.0274,-0.01389 -0.0687,-0.01395 -0.0385,-5e-5 -0.0465,0.0017 -0.0672,0.01137 -0.0265,0.01244 -0.0548,0.03594 -0.0682,0.05736 -0.005,0.008 -0.0136,0.02766 -0.0186,0.04341 -0.0184,0.0555 -0.002,0.114907 0.0455,0.160197 0.0213,0.02019 0.0253,0.02641 0.0253,0.03824 0,0.01958 0.0113,0.06069 0.0212,0.07751 0.005,0.0077 0.007,0.0141 0.007,0.01447 -6.8e-4,3.7e-4 -0.0112,0.0063 -0.0238,0.01292 -0.0126,0.0066 -0.0547,0.03003 -0.0935,0.05219 -0.15351,0.08762 -0.19232,0.109477 -0.22324,0.126607 l -0.032,0.01809 -0.0109,-0.0186 c -0.0147,-0.02505 -0.0499,-0.05645 -0.0791,-0.07028 -0.0386,-0.01827 -0.0752,-0.024 -0.11473,-0.0186 -0.0183,0.0025 -0.034,0.004 -0.0346,0.0031 -9.3e-4,-9.3e-4 0.007,-0.01459 0.017,-0.02997 0.0103,-0.01539 0.02,-0.03211 0.0212,-0.03721 0.002,-0.0091 0.003,-0.0089 0.0336,-0.0036 0.0704,0.01206 0.13896,-0.01277 0.18346,-0.06615 0.0859,-0.102978 0.054,-0.249735 -0.0667,-0.309025 -0.0172,-0.0085 -0.0284,-0.01759 -0.0315,-0.02429 -0.003,-0.0058 -0.013,-0.01893 -0.0227,-0.02945 -0.0393,-0.04263 -0.0865,-0.06408 -0.14211,-0.06408 h -0.0351 l -0.0274,-0.02067 c -0.0625,-0.04731 -0.12531,-0.06968 -0.20568,-0.07338 -0.0594,-0.0027 -0.10162,0.0035 -0.15244,0.02325 -0.0642,0.02491 -0.13322,0.08007 -0.16898,0.134359 -0.009,0.01313 -0.019,0.0238 -0.0227,0.02377 -0.004,-10e-5 -0.0169,-0.0029 -0.0295,-0.0062 -0.0284,-0.0076 -0.10107,-0.0079 -0.1354,-5.17e-4 l -0.0253,0.0052 -0.007,-0.01912 c -0.0135,-0.03808 -0.0516,-0.08583 -0.0868,-0.109037 -0.0521,-0.03431 -0.11961,-0.04824 -0.18293,-0.03721 -0.0767,0.01337 -0.14512,0.06972 -0.17518,0.143661 l -0.009,0.02274 -0.0114,-0.0057 c -0.0198,-0.01025 -0.0731,-0.01975 -0.0977,-0.01705 -0.0438,0.0048 -0.0764,0.01795 -0.10801,0.04341 -0.0281,0.02266 -0.0361,0.03259 -0.0553,0.0708 l -0.0176,0.03514 v 0.05013 c 0,0.04994 -3e-5,0.05004 0.016,0.08217 0.0372,0.07459 0.10166,0.115202 0.185,0.115755 h 0.0315 l 0.0119,0.02532 c 0.0206,0.04344 0.0685,0.0833 0.12093,0.100769 0.007,0.0021 0.003,0.0049 -0.0165,0.01137 -0.0524,0.01771 -0.0889,0.05083 -0.11317,0.102836 -0.008,0.01713 -0.0149,0.03181 -0.0155,0.03256 -6.2e-4,7e-4 -0.008,-0.002 -0.0155,-0.0062 -0.0109,-0.0059 -0.0233,-0.0077 -0.0574,-0.0078 -0.0404,-6e-5 -0.0451,0.0011 -0.0636,0.01189 -0.011,0.0064 -0.026,0.01717 -0.0336,0.02377 -0.02,0.01755 -0.0387,0.05858 -0.0424,0.09198 l -0.003,0.0279 -0.0109,-0.0057 c -0.0209,-0.01082 -0.0611,-0.01563 -0.0868,-0.01033 -0.0677,0.01379 -0.10844,0.06253 -0.11214,0.134875 -0.002,0.03012 -4e-4,0.03598 0.01,0.05633 0.0294,0.05865 0.0696,0.08512 0.12867,0.08475 0.0248,-2e-4 0.0384,-0.0026 0.0532,-0.0093 0.0213,-0.0097 0.0211,-0.0099 0.0248,0.0155 0.003,0.02144 0.0178,0.05913 0.0315,0.07958 0.0437,0.06506 0.11481,0.103006 0.19121,0.102836 0.0634,-1.4e-4 0.11656,-0.02181 0.16019,-0.06563 l 0.0222,-0.02222 0.0191,0.01344 c 0.0527,0.03625 0.10647,0.05178 0.1664,0.04858 0.0493,-0.0027 0.0853,-0.01296 0.12196,-0.03514 l 0.0264,-0.01602 0.0357,0.01809 c 0.0517,0.02592 0.0795,0.03194 0.14366,0.03204 0.0297,1e-4 0.0621,-0.0012 0.0718,-0.0031 0.0171,-0.0034 0.0176,-0.0035 0.0176,0.0067 0,0.01766 -0.0165,0.05604 -0.0367,0.08527 -0.0399,0.05776 -0.05,0.07437 -0.0708,0.112654 -0.0567,0.104175 -0.0694,0.146773 -0.062,0.207223 0.008,0.06146 0.0445,0.152135 0.0832,0.203605 0.0537,0.07157 0.17912,0.203679 0.27853,0.294039 0.0314,0.02852 0.056,0.05381 0.0548,0.05581 -0.001,0.002 5.4e-4,0.0022 0.004,0.001 0.008,-0.0031 0.14726,0.117494 0.1912,0.165364 0.0595,0.06487 0.09,0.111804 0.0956,0.144694 0.003,0.02019 -0.004,0.06476 -0.015,0.08837 -0.006,0.01403 -0.0453,0.05523 -0.15554,0.165881 h -1.71204 -0.0295 c -0.29223,0 -0.54312,0.251094 -0.54312,0.54312 v 0.05943 c -0.38688,0.04923 -0.6873,0.380324 -0.6873,0.780314 v 2.128552 c 0,0.433794 0.35324,0.787549 0.78704,0.787549 h 5.52524 c 0.43379,0 0.78755,-0.353755 0.78755,-0.787549 v -2.128552 c 0,-0.39999 -0.30086,-0.731079 -0.68782,-0.780314 v -0.05943 c 0,-0.292268 -0.25074,-0.54312 -0.54311,-0.54312 h -1.78749 c -0.028,-0.02878 -0.0546,-0.05893 -0.0682,-0.07803 -0.0309,-0.04337 -0.0521,-0.08646 -0.0558,-0.112138 -0.007,-0.05099 -0.0294,-0.09399 -0.0832,-0.156063 -0.0383,-0.04413 -0.0772,-0.08003 -0.12971,-0.119889 -0.0419,-0.03179 -0.0653,-0.05962 -0.0739,-0.0894 -0.008,-0.02632 -0.005,-0.04693 0.009,-0.06925 0.0128,-0.02039 0.0209,-0.02425 0.0522,-0.02429 0.06,-6e-5 0.12707,-0.02601 0.17622,-0.0677 0.0372,-0.03156 0.10735,-0.06034 0.15296,-0.06305 0.0183,-10e-4 0.0396,-0.0036 0.047,-0.0057 l 0.0129,-0.0041 0.014,0.02739 c 0.0531,0.10785 0.18967,0.138036 0.28473,0.06253 0.0175,-0.01388 0.0546,-0.06221 0.0548,-0.07131 1.8e-4,-0.0137 0.007,-0.01587 0.031,-0.0088 0.0338,0.0098 0.0844,0.0072 0.11214,-0.0062 0.0305,-0.0147 0.0615,-0.04572 0.0755,-0.07597 0.0107,-0.02272 0.0119,-0.03042 0.0119,-0.06511 0,-0.03788 -5.2e-4,-0.04077 -0.016,-0.06976 -0.0168,-0.03147 -0.0416,-0.05573 -0.0698,-0.06873 -0.0219,-0.01017 -0.0561,-0.01667 -0.076,-0.01447 -0.0174,0.002 -0.0174,0.0021 -0.0269,-0.0186 -0.0193,-0.04215 -0.0698,-0.07761 -0.11885,-0.08371 -0.0376,-0.0047 -0.0885,0.0095 -0.11266,0.03152 l -0.009,0.0083 -0.01,-0.01602 c -0.005,-0.0087 -0.0145,-0.02196 -0.0202,-0.02946 -0.0111,-0.01423 -0.059,-0.05478 -0.0646,-0.05478 -0.002,0 -0.006,-0.0025 -0.01,-0.0057 -0.004,-0.0031 -0.0215,-0.01117 -0.0398,-0.01757 -0.0286,-0.01 -0.0398,-0.01137 -0.0791,-0.01137 -0.0393,0 -0.0505,0.0015 -0.0785,0.01137 -0.0324,0.01144 -0.0577,0.02443 -0.0682,0.03462 -0.008,0.0077 -0.011,0.0062 -0.0176,-0.0062 -0.009,-0.01748 -0.0438,-0.04221 -0.0693,-0.04961 -0.0568,-0.0165 -0.11481,0.0068 -0.15038,0.05994 l -0.007,0.0093 -0.0186,-0.01292 c -0.0611,-0.04223 -0.13246,-0.05428 -0.20515,-0.03411 -0.021,0.0058 -0.0245,0.0058 -0.0264,0.001 -0.004,-0.01092 -0.0402,-0.04639 -0.0568,-0.05529 -0.014,-0.0074 -0.0238,-0.0088 -0.0584,-0.0088 -0.0355,0 -0.0439,0.0015 -0.0594,0.0098 -0.01,0.0053 -0.0229,0.01455 -0.0279,0.02015 l -0.009,0.0098 -0.0191,-0.01395 c -0.0293,-0.02234 -0.0505,-0.02877 -0.0884,-0.02687 -0.039,0.002 -0.0582,0.01024 -0.0847,0.03669 -0.0219,0.02185 -0.0372,0.05653 -0.0372,0.08527 0,0.01023 -3.1e-4,0.01809 -0.002,0.01809 -0.006,0 -0.0357,-0.01342 -0.0357,-0.01602 0,-0.0086 0.0184,-0.05403 0.0336,-0.0832 0.0225,-0.04325 0.0545,-0.08119 0.10542,-0.124024 0.0762,-0.06411 0.19949,-0.13919 0.26406,-0.16123 0.0364,-0.01247 0.13511,-0.01031 0.20413,0.0041 0.0536,0.01123 0.1085,0.02883 0.15709,0.05116 0.0695,0.03192 0.16787,0.06111 0.2527,0.07441 0.0316,0.0049 0.0597,0.0061 0.10387,0.0047 0.0649,-0.0021 0.0857,-0.0064 0.17105,-0.03514 0.0427,-0.01437 0.0533,-0.01843 0.1235,-0.04858 l 0.0346,-0.01499 0.0134,0.0098 c 0.0692,0.0519 0.18888,0.06852 0.27906,0.03824 0.0171,-0.0057 0.0319,-0.01085 0.0326,-0.01085 8.6e-4,0 0.007,0.01065 0.0145,0.02325 0.0651,0.11538 0.21757,0.136536 0.31212,0.04341 0.0228,-0.0224 0.0496,-0.06793 0.0496,-0.08371 0,-0.0041 0.002,-0.0078 0.004,-0.0078 0.002,0 0.029,0.01454 0.0594,0.03204 0.069,0.03965 0.16221,0.08468 0.20051,0.09715 0.016,0.0052 0.0396,0.0097 0.0522,0.0098 0.0205,2e-4 0.0231,-8.04e-4 0.0243,-0.0093 0.002,-0.01213 -0.012,-0.03434 -0.0382,-0.06253 l -0.0212,-0.02274 0.0351,-0.0067 c 0.0194,-0.0039 0.0447,-0.01219 0.0563,-0.01809 0.0463,-0.02346 0.0819,-0.06769 0.0992,-0.123507 l 0.007,-0.02325 0.03,-0.0052 c 0.0487,-0.0082 0.0996,-0.03738 0.12609,-0.07235 0.0172,-0.02261 0.0332,-0.0601 0.0388,-0.09043 0.0147,-0.08219 -0.0324,-0.17386 -0.10749,-0.20929 -0.0223,-0.01035 -0.0263,-0.01367 -0.0238,-0.02067 0.006,-0.01838 0.007,-0.08286 0.002,-0.10542 -0.0169,-0.07687 -0.0867,-0.144137 -0.16433,-0.158647 -0.0525,-0.0098 -0.11224,0.002 -0.15606,0.03152 -0.0117,0.0078 -0.0221,0.01447 -0.0227,0.01447 -0.001,0 -0.002,-0.0037 -0.002,-0.0083 0,-0.01413 -0.0164,-0.07073 -0.0295,-0.101286 -0.0359,-0.08433 -0.10103,-0.153007 -0.18449,-0.193787 -0.0351,-0.01712 -0.10419,-0.03721 -0.12712,-0.03721 h -0.0119 v -0.02842 c 0,-0.06032 -0.0313,-0.112953 -0.0837,-0.140043 -0.0273,-0.01412 -0.0709,-0.0209 -0.0982,-0.0155 l -0.0212,0.0041 -0.0114,-0.01499 c -0.0161,-0.02135 -0.0587,-0.06211 -0.0682,-0.06511 -0.004,-0.0014 -0.008,-0.0039 -0.008,-0.0057 0,-0.0018 -0.0129,-0.0088 -0.0284,-0.01602 -0.0447,-0.02062 -0.0898,-0.03078 -0.13384,-0.03049 z m -2.33785,0.640271 c 6.3e-4,-2.26e-4 9.2e-4,-2.48e-4 0.001,0 6.8e-4,9.6e-4 0.01,0.01486 0.0202,0.03101 l 0.0191,0.02945 -0.009,0.02791 c -0.005,0.01536 -0.0102,0.02898 -0.0114,0.02997 -0.001,10e-4 -0.008,-0.0052 -0.016,-0.01344 -0.0208,-0.02173 -0.0483,-0.03941 -0.0765,-0.04961 l -0.0248,-0.0088 0.0145,-0.0031 c 0.0183,-0.0038 0.0612,-0.02542 0.0734,-0.03669 0.004,-0.0036 0.008,-0.006 0.01,-0.0067 z m 1.43661,0.219624 0.003,0.01137 c 0.006,0.02381 0.0324,0.0682 0.0543,0.08992 0.0255,0.02533 0.059,0.04451 0.092,0.05271 0.0173,0.0043 0.0232,0.0078 0.0263,0.01602 0.01,0.02594 0.0234,0.04838 0.0429,0.07028 0.0116,0.013 0.0278,0.03672 0.0357,0.05271 0.0138,0.02788 0.0471,0.06699 0.0703,0.08217 h 5.2e-4 l 0.0103,0.0067 -0.0165,-5.16e-4 c -0.0263,-2.7e-4 -0.0646,-0.0091 -0.14728,-0.03411 -0.0764,-0.02309 -0.21254,-0.06774 -0.2589,-0.08527 l -0.0243,-0.0093 0.003,-0.03204 c 0.003,-0.03759 -0.005,-0.08051 -0.0201,-0.111104 -0.009,-0.01664 -0.009,-0.02112 -0.005,-0.02532 0.01,-0.009 0.0776,-0.05279 0.10645,-0.06873 z m 4.68395,2.662887 c -0.0613,0 -0.11275,0.01942 -0.15451,0.05839 -0.039,0.03897 -0.0584,0.09048 -0.0584,0.154513 v 1.904276 c 0.003,0.219935 0.0543,0.417339 0.15451,0.592729 0.10023,0.175391 0.23667,0.314539 0.40928,0.417546 0.17261,0.100223 0.36731,0.150378 0.58446,0.150378 0.21993,0 0.4165,-0.05016 0.58911,-0.150378 0.17261,-0.103007 0.30905,-0.242155 0.40928,-0.417546 0.10301,-0.17539 0.15451,-0.372794 0.15451,-0.592729 0,-0.219933 -0.0474,-0.416504 -0.14211,-0.589111 -0.0919,-0.175391 -0.21835,-0.313189 -0.37982,-0.413411 -0.16147,-0.103008 -0.34402,-0.154513 -0.54726,-0.154513 -0.16425,0 -0.31607,0.03479 -0.45526,0.104387 -0.13642,0.06682 -0.25345,0.159024 -0.35089,0.275952 v -1.12758 c 0,-0.06403 -0.0194,-0.115539 -0.0584,-0.154513 -0.039,-0.03897 -0.0905,-0.05839 -0.15451,-0.05839 z m 13.71699,0.05426 c -0.0693,0.0033 -0.13022,0.031 -0.18242,0.0832 -0.0529,0.0529 -0.0796,0.117069 -0.0796,0.192237 0,0.07517 0.0267,0.14069 0.0796,0.19637 0.0557,0.05289 0.12121,0.07906 0.19638,0.07906 0.0752,0 0.13882,-0.02617 0.19171,-0.07906 0.0557,-0.05568 0.0837,-0.121203 0.0837,-0.19637 0,-0.07517 -0.028,-0.139343 -0.0837,-0.192237 -0.0529,-0.05568 -0.11655,-0.0832 -0.19171,-0.0832 -0.005,0 -0.009,-2.17e-4 -0.0139,0 z m -21.19095,0.240812 h 5.52524 c 0.27278,0 0.48628,0.21349 0.48628,0.486276 v 2.128552 c 0,0.272786 -0.2135,0.488342 -0.48628,0.488342 h -5.52524 c -0.27278,0 -0.48628,-0.215556 -0.48628,-0.488342 v -2.128552 c 0,-0.272786 0.2135,-0.486276 0.48628,-0.486276 z m 14.15159,0.660942 c -0.18374,0 -0.34958,0.0407 -0.49713,0.12144 -0.0801,0.04381 -0.15087,0.09607 -0.21291,0.157096 v -0.04444 c 0,-0.06403 -0.0194,-0.115539 -0.0584,-0.154512 -0.039,-0.03897 -0.0905,-0.0584 -0.15451,-0.0584 -0.0613,0 -0.11275,0.01942 -0.15451,0.0584 -0.039,0.03897 -0.0584,0.09048 -0.0584,0.154512 v 1.862419 c 0,0.06125 0.0194,0.112752 0.0584,0.154512 0.0418,0.03897 0.0933,0.0584 0.15451,0.0584 0.064,0 0.11554,-0.01942 0.15451,-0.0584 0.039,-0.04176 0.0584,-0.09327 0.0584,-0.154512 v -1.177706 c 0,-0.103007 0.028,-0.19335 0.0837,-0.271301 0.0557,-0.08074 0.13066,-0.14491 0.22531,-0.192237 0.0947,-0.04733 0.20037,-0.0708 0.3173,-0.0708 0.12806,0 0.24104,0.02482 0.33848,0.07493 0.10022,0.04733 0.17924,0.120951 0.23771,0.221175 0.0585,0.100223 0.0879,0.22992 0.0879,0.388606 v 1.027328 c 0,0.06125 0.0194,0.112752 0.0584,0.154512 0.0418,0.03897 0.0933,0.0584 0.15451,0.0584 0.0613,0 0.11141,-0.01942 0.15038,-0.0584 0.0418,-0.04176 0.0625,-0.09327 0.0625,-0.154512 v -1.027328 c 0,-0.231069 -0.0442,-0.425773 -0.13332,-0.58446 -0.0863,-0.158687 -0.20604,-0.278416 -0.35916,-0.359151 -0.15033,-0.08352 -0.32157,-0.125574 -0.51366,-0.125574 z m -2.9192,0.0041 c -0.2255,0 -0.42426,0.05016 -0.59687,0.150379 -0.1726,0.09744 -0.30905,0.233886 -0.40927,0.409277 -0.0974,0.172606 -0.14625,0.373228 -0.14625,0.601514 0,0.225502 0.0488,0.426123 0.14625,0.601513 0.10022,0.172607 0.23667,0.308538 0.40927,0.408761 0.17261,0.09744 0.37137,0.146244 0.59687,0.146244 0.2255,0 0.42477,-0.04881 0.59738,-0.146244 0.1726,-0.100223 0.3077,-0.236154 0.40514,-0.408761 0.0974,-0.17539 0.14573,-0.376011 0.14573,-0.601513 0,-0.228286 -0.0496,-0.428908 -0.14986,-0.601514 -0.0974,-0.175391 -0.23254,-0.311838 -0.40515,-0.409277 -0.1726,-0.100224 -0.37052,-0.150379 -0.59324,-0.150379 z m 5.43326,0 c -0.14198,0 -0.27843,0.02399 -0.40928,0.07131 -0.13085,0.04454 -0.23842,0.114117 -0.32194,0.208772 -0.0835,0.09187 -0.12506,0.208901 -0.12506,0.350883 0,0.161471 0.0628,0.297919 0.1881,0.409278 0.12806,0.111358 0.33222,0.194434 0.6134,0.250114 0.21715,0.03898 0.36627,0.08913 0.447,0.150378 0.0835,0.06125 0.12424,0.134039 0.12144,0.217558 -0.003,0.08352 -0.0475,0.151745 -0.13384,0.204639 -0.0835,0.05289 -0.20595,0.07906 -0.36742,0.07906 -0.12806,0 -0.24509,-0.02211 -0.35088,-0.06666 -0.10301,-0.04733 -0.17799,-0.09748 -0.22531,-0.150379 -0.039,-0.04173 -0.0864,-0.06571 -0.14211,-0.07131 -0.0529,-0.0084 -0.1071,0.01023 -0.16278,0.05478 -0.0473,0.03619 -0.0754,0.08313 -0.0837,0.141593 -0.006,0.05568 0.0125,0.105839 0.0543,0.150379 0.0919,0.09187 0.22021,0.168713 0.38447,0.22996 0.16704,0.05846 0.34772,0.08733 0.5426,0.08733 0.19766,0 0.36215,-0.03022 0.49299,-0.09147 0.13364,-0.06125 0.23343,-0.14349 0.30024,-0.246497 0.0696,-0.103007 0.10491,-0.218685 0.10491,-0.346749 0,-0.111359 -0.0267,-0.208969 -0.0796,-0.292488 -0.0529,-0.0863 -0.14054,-0.161276 -0.26304,-0.225309 -0.11971,-0.06403 -0.28419,-0.116887 -0.49299,-0.158647 -0.15033,-0.03062 -0.26415,-0.06136 -0.3421,-0.09198 -0.078,-0.03341 -0.1308,-0.06955 -0.15864,-0.108521 -0.025,-0.04176 -0.0377,-0.08786 -0.0377,-0.137976 0,-0.08073 0.0415,-0.141691 0.12505,-0.183451 0.0863,-0.04176 0.19067,-0.06253 0.31316,-0.06253 0.10579,0 0.19935,0.01215 0.28009,0.03721 0.0807,0.02506 0.15571,0.07116 0.22531,0.137976 0.0418,0.03898 0.0933,0.0638 0.15451,0.07493 0.0612,0.01114 0.1141,0.0017 0.15865,-0.02894 0.0445,-0.03341 0.0685,-0.0736 0.0713,-0.120923 0.003,-0.05011 -0.0153,-0.09756 -0.0543,-0.14211 -0.0835,-0.103011 -0.1965,-0.183903 -0.33848,-0.242363 -0.14199,-0.05846 -0.3046,-0.08785 -0.48835,-0.08785 z m 2.50114,0 c -0.21715,0 -0.41321,0.05151 -0.5886,0.154513 -0.1726,0.100222 -0.3104,0.23802 -0.41341,0.413411 -0.10022,0.175391 -0.15038,0.373312 -0.15038,0.593246 0,0.219934 0.0456,0.417338 0.13746,0.592728 0.0947,0.172607 0.223,0.310405 0.38447,0.413412 0.16147,0.100223 0.34351,0.150378 0.54674,0.150378 0.20323,0 0.38578,-0.05016 0.54725,-0.150378 0.0996,-0.06351 0.18581,-0.139996 0.2589,-0.22996 v 0.155029 c 0,0.06125 0.0194,0.112752 0.0584,0.154512 0.0418,0.03897 0.0933,0.0584 0.15452,0.0584 0.0613,0 0.1114,-0.01942 0.15037,-0.0584 0.0418,-0.04176 0.0625,-0.09327 0.0625,-0.154512 v -0.931209 c 0,-0.219934 -0.0515,-0.417855 -0.15451,-0.593246 -0.10022,-0.175391 -0.23667,-0.313189 -0.40928,-0.413411 -0.1726,-0.103008 -0.36731,-0.154513 -0.58446,-0.154513 z m 2.02675,0.01705 c -0.0563,0.0023 -0.104,0.02186 -0.14315,0.0584 -0.039,0.03897 -0.0589,0.09048 -0.0589,0.154512 v 1.858285 c 0,0.06125 0.0199,0.112752 0.0589,0.154512 0.0418,0.03897 0.0933,0.0584 0.15452,0.0584 0.064,0 0.11553,-0.01942 0.15451,-0.0584 0.039,-0.04176 0.0584,-0.09327 0.0584,-0.154512 v -1.858285 c 0,-0.06403 -0.0194,-0.115539 -0.0584,-0.154512 -0.039,-0.03897 -0.0905,-0.0584 -0.15451,-0.0584 -0.004,0 -0.008,-1.52e-4 -0.0114,0 z m -20.48041,0.345236 a 0.52404338,0.52405179 0 0 0 -0.52451,0.523999 0.52404338,0.52405179 0 0 0 0.52451,0.523999 0.52404338,0.52405179 0 0 0 0.524,-0.523999 0.52404338,0.52405179 0 0 0 -0.524,-0.523999 z m 4.0995,0 a 0.52404338,0.52405179 0 0 0 -0.524,0.523999 0.52404338,0.52405179 0 0 0 0.524,0.523999 0.52404338,0.52405179 0 0 0 0.52399,-0.523999 0.52404338,0.52405179 0 0 0 -0.52399,-0.523999 z m 3.57084,0.01395 c 0.009,-2.72e-4 0.0171,0 0.0258,0 0.14198,0 0.26898,0.03479 0.38033,0.104386 0.11136,0.06682 0.199,0.158509 0.26304,0.275435 0.0668,0.116928 0.10025,0.250675 0.10025,0.401009 0,0.147552 -0.0334,0.281298 -0.10025,0.40101 -0.064,0.11971 -0.15168,0.214104 -0.26304,0.283703 -0.11135,0.06682 -0.23835,0.100252 -0.38033,0.100252 -0.1392,0 -0.26568,-0.03344 -0.37982,-0.100252 -0.11136,-0.0696 -0.19901,-0.163993 -0.26304,-0.283703 -0.064,-0.119712 -0.0961,-0.253458 -0.0961,-0.40101 0,-0.150334 0.0321,-0.284081 0.0961,-0.401009 0.064,-0.116926 0.15167,-0.208619 0.26304,-0.275435 0.107,-0.06525 0.22495,-0.100308 0.35398,-0.104386 z m 2.82205,0 c 0.009,-2.61e-4 0.0178,0 0.0269,0 0.14476,0 0.27311,0.03344 0.38447,0.100252 0.11136,0.06682 0.19765,0.159859 0.2589,0.279569 0.064,0.116928 0.0961,0.252025 0.0961,0.405144 0,0.153119 -0.0321,0.288216 -0.0961,0.405143 -0.0613,0.116927 -0.14754,0.20862 -0.2589,0.275435 -0.11136,0.06682 -0.23971,0.100252 -0.38447,0.100252 -0.14477,0 -0.2726,-0.03344 -0.38396,-0.100252 -0.11136,-0.06682 -0.199,-0.158508 -0.26303,-0.275435 -0.064,-0.116927 -0.0961,-0.252024 -0.0961,-0.405143 0,-0.153119 0.0321,-0.288216 0.0961,-0.405144 0.064,-0.11971 0.15167,-0.212753 0.26303,-0.279569 0.1044,-0.06264 0.22332,-0.09634 0.35708,-0.100252 z m 7.93543,0 c 0.009,-2.72e-4 0.0171,0 0.0258,0 0.14198,0 0.26846,0.03479 0.37982,0.104386 0.11136,0.06682 0.19952,0.159859 0.26355,0.279569 0.064,0.116928 0.0956,0.250675 0.0956,0.40101 0,0.147551 -0.0316,0.281298 -0.0956,0.401009 -0.064,0.116927 -0.15219,0.20997 -0.26355,0.279569 -0.11136,0.06682 -0.23784,0.100252 -0.37982,0.100252 -0.1392,0 -0.26568,-0.03344 -0.37982,-0.100252 -0.11136,-0.0696 -0.20035,-0.162642 -0.26717,-0.279569 -0.064,-0.119711 -0.0961,-0.253458 -0.0961,-0.401009 0,-0.150335 0.0321,-0.284082 0.0961,-0.40101 0.0668,-0.11971 0.15581,-0.212753 0.26717,-0.279569 0.10701,-0.06525 0.22495,-0.100308 0.35398,-0.104386 z" /></g></svg>
